<?xml version="1.0" encoding="UTF-8"?>
<svg version="1.1" xmlns="http://www.w3.org/2000/svg" width="183" height="200">
<path d="M0 0 C24.09 0 48.18 0 73 0 C73 2.97 73 5.94 73 9 C52.21 9 31.42 9 10 9 C10 60.15 10 111.3 10 164 C63.46 164 116.92 164 172 164 C172 112.85 172 61.7 172 9 C145.27 9 118.54 9 91 9 C91 44.64 91 80.28 91 117 C80 117 80 117 76.50390625 114.0625 C75.48792442 112.73476988 74.50866288 111.37835487 73.5625 110 C72.75981689 108.92480103 72.75981689 108.92480103 71.94091797 107.82788086 C70.82438647 106.32579043 69.72291826 104.81239438 68.63623047 103.28857422 C67.04358867 101.0609669 65.40975516 98.87231708 63.75390625 96.69140625 C61.7699552 94.07814557 59.80121837 91.45534142 57.8515625 88.81640625 C54.62630458 84.49986243 51.30815673 80.25334436 48 76 C47.67 89.53 47.34 103.06 47 117 C43.7 117 40.4 117 37 117 C37 96.21 37 75.42 37 54 C48 54 48 54 51.71484375 57.375 C52.82510896 58.89091332 53.89799309 60.4347181 54.9375 62 C55.80955078 63.21502197 55.80955078 63.21502197 56.69921875 64.45458984 C57.90044431 66.13010364 59.08778473 67.81565681 60.26123047 69.51074219 C62.90408725 73.29430969 65.70788389 76.95113973 68.5 80.625 C69.42867148 81.86600063 70.35581379 83.1081474 71.28125 84.3515625 C74.17924575 88.24053956 77.08999864 92.11999819 80 96 C80.33 64.32 80.66 32.64 81 0 C114.33 0 147.66 0 182 0 C182 57.09 182 114.18 182 173 C121.94 173 61.88 173 0 173 C0 115.91 0 58.82 0 0 Z " fill="#B99F47" transform="translate(0,13)"/>
<path d="M0 0 C23.76 0 47.52 0 72 0 C71.67 1.98 71.34 3.96 71 6 C50.21 6 29.42 6 8 6 C8.01160156 16.16039062 8.02320313 26.32078125 8.03515625 36.7890625 C8.04026833 43.24218776 8.045124 49.69531154 8.04882812 56.1484375 C8.05474933 66.38151555 8.0616899 76.61458533 8.07543945 86.84765625 C8.08545073 94.3021204 8.09186868 101.7565778 8.09408849 109.21104848 C8.09538472 113.15296157 8.09840091 117.09485537 8.10573006 121.03676224 C8.11259228 124.75821058 8.11459654 128.47963198 8.11310768 132.20108604 C8.11350762 134.1951113 8.11884904 136.18913373 8.12442017 138.18315125 C8.1150622 146.50505997 7.69965326 154.7083363 7 163 C7.66 163.33 8.32 163.66 9 164 C8.01 164 7.02 164 6 164 C6 164.66 6 165.32 6 166 C61.44 166 116.88 166 174 166 C174 114.52 174 63.04 174 10 C174.99 10 175.98 10 177 10 C177 7.36 177 4.72 177 2 C177.33 2 177.66 2 178 2 C179.10701161 9.12614256 179.14117085 16.13244576 179.12939453 23.3347168 C179.13075188 24.67126513 179.13253368 26.00781309 179.13470459 27.34436035 C179.13924498 30.95882713 179.13750183 34.57326521 179.1343255 38.18773246 C179.1317775 41.9962342 179.13414683 45.80473363 179.13571167 49.61323547 C179.13752914 56.02121415 179.13514113 62.42918129 179.13037109 68.8371582 C179.12495951 76.1907268 179.12667009 83.54426754 179.1321975 90.89783543 C179.13677706 97.24986718 179.13735488 103.60189066 179.13475883 109.95392352 C179.1332185 113.7299395 179.13293868 117.50594254 179.13629532 121.28195763 C179.13924399 124.84841291 179.13707414 128.41483345 179.13140106 131.9812851 C179.12950545 133.87249711 179.13236912 135.76371216 179.13552856 137.65492249 C179.10979812 148.48495824 178.51707607 159.14140254 178 170 C119.92 170 61.84 170 2 170 C2 163.07 2 156.14 2 149 C1.34 149 0.68 149 0 149 C0 99.83 0 50.66 0 0 Z " fill="#CAB46B" transform="translate(0,13)"/>
<path d="M0 0 C28.05 0 56.1 0 85 0 C85.33 0.99 85.66 1.98 86 3 C85.01 2.67 84.02 2.34 83 2 C80.36950725 1.88019108 77.76357239 1.81472546 75.13208008 1.79467773 C74.31891925 1.78464501 73.50575842 1.77461229 72.66795635 1.76427555 C70.03517699 1.73288769 67.40238257 1.70811819 64.76953125 1.68359375 C63.1443228 1.66519057 61.5191192 1.64635391 59.8939209 1.6270752 C53.86683802 1.55862588 47.83966213 1.49857415 41.8125 1.4375 C28.344375 1.293125 14.87625 1.14875 1 1 C1 36.64 1 72.28 1 109 C-8 109 -8 109 -11.3125 106 C-12.57079224 104.35521153 -13.79475233 102.68404469 -15 101 C-15.90192486 99.79720636 -16.80713623 98.59687317 -17.71484375 97.3984375 C-19.77206407 94.67554698 -21.81793774 91.94468445 -23.85546875 89.20703125 C-26.89350392 85.1346107 -29.95577092 81.08278783 -33.0625 77.0625 C-33.5152832 76.46550293 -33.96806641 75.86850586 -34.43457031 75.25341797 C-37.09951607 71.81841844 -37.09951607 71.81841844 -41 70 C-41 83.86 -41 97.72 -41 112 C-44.3 112 -47.6 112 -51 112 C-51 91.21 -51 70.42 -51 49 C-40 49 -40 49 -36.28515625 52.375 C-35.17489104 53.89091332 -34.10200691 55.4347181 -33.0625 57 C-32.19044922 58.21502197 -32.19044922 58.21502197 -31.30078125 59.45458984 C-30.09955569 61.13010364 -28.91221527 62.81565681 -27.73876953 64.51074219 C-25.09591275 68.29430969 -22.29211611 71.95113973 -19.5 75.625 C-18.12704212 77.45970865 -16.75867101 79.29743882 -15.3984375 81.14160156 C-14.38455159 82.48896531 -13.34449445 83.8167629 -12.2890625 85.13183594 C-11.72960937 85.83856445 -11.17015625 86.54529297 -10.59375 87.2734375 C-10.07490234 87.91458496 -9.55605469 88.55573242 -9.02148438 89.21630859 C-8.68439453 89.80492676 -8.34730469 90.39354492 -8 91 C-9 94 -9 94 -10 96 C-8.02 95.505 -8.02 95.505 -6 95 C-5.67 65.3 -5.34 35.6 -5 5 C-3.68 5 -2.36 5 -1 5 C-0.67 3.35 -0.34 1.7 0 0 Z " fill="#DFC875" transform="translate(88,18)"/>
<path d="M0 0 C3.63 0 7.26 0 11 0 C11 17.49 11 34.98 11 53 C21.56 53 32.12 53 43 53 C43 56.3 43 59.6 43 63 C28.81 63 14.62 63 0 63 C0 42.21 0 21.42 0 0 Z " fill="#C8B262" transform="translate(103,67)"/>
<path d="M0 0 C0.33 0 0.66 0 1 0 C1 2.97 1 5.94 1 9 C-19.79 9 -40.58 9 -62 9 C-62 60.15 -62 111.3 -62 164 C-8.54 164 44.92 164 100 164 C100.33 134.63 100.66 105.26 101 75 C101.33 75 101.66 75 102 75 C102 105.03 102 135.06 102 166 C46.56 166 -8.88 166 -66 166 C-65.67 165.01 -65.34 164.02 -65 163 C-64.8965248 160.89485137 -64.85355624 158.78656658 -64.84178162 156.6789093 C-64.83684364 156.03522831 -64.83190566 155.39154731 -64.82681805 154.72836083 C-64.81144016 152.56801465 -64.80308167 150.40769819 -64.79467773 148.24731445 C-64.78509944 146.70009092 -64.77508938 145.15287001 -64.76467896 143.60565186 C-64.73761859 139.40143488 -64.71661515 135.19720666 -64.69667697 130.99295068 C-64.67482441 126.60068219 -64.64743215 122.2084484 -64.62062073 117.81620789 C-64.57068397 109.49711604 -64.52574878 101.17800496 -64.48259836 92.85887545 C-64.43323439 83.38858834 -64.37831315 73.91833603 -64.32291877 64.44808257 C-64.20908362 44.96541923 -64.10298158 25.48272394 -64 6 C-43.21 6 -22.42 6 -1 6 C-1 4.35 -1 2.7 -1 1 C-0.67 0.67 -0.34 0.34 0 0 Z " fill="#60490D" transform="translate(72,13)"/>
<path d="M0 0 C0.66 0 1.32 0 2 0 C2 57.09 2 114.18 2 173 C-58.06 173 -118.12 173 -180 173 C-180 165.08 -180 157.16 -180 149 C-179.34 149 -178.68 149 -178 149 C-178 155.93 -178 162.86 -178 170 C-119.92 170 -61.84 170 -2 170 C-1.71055208 114.42690703 -1.71055208 114.42690703 -1.43188477 58.85375977 C-1.3729248 48.1307373 -1.3729248 48.1307373 -1.34410095 43.11851501 C-1.32421767 39.60106704 -1.30714501 36.0836172 -1.29173279 32.56614685 C-1.27202135 28.08811569 -1.24760757 23.61013401 -1.21969402 19.13214672 C-1.21023388 17.48327553 -1.20246762 15.83439362 -1.19653046 14.18550599 C-1.18831352 11.96899842 -1.17406982 9.75261217 -1.15821838 7.53614807 C-1.15176583 6.29080575 -1.14531328 5.04546343 -1.1386652 3.76238346 C-1 1 -1 1 0 0 Z " fill="#513907" transform="translate(180,13)"/>
<path d="M0 0 C23.76 0 47.52 0 72 0 C71.67 1.98 71.34 3.96 71 6 C70.01 5.505 70.01 5.505 69 5 C67.02815945 4.93745288 65.05404795 4.94233516 63.08154297 4.97827148 C61.84040741 4.99836777 60.59927185 5.01846405 59.32052612 5.03916931 C57.96107771 5.06636765 56.60163155 5.09367846 55.2421875 5.12109375 C53.85499844 5.14539274 52.46780134 5.16923641 51.08059692 5.19264221 C47.4275802 5.2555052 43.77470571 5.32456548 40.12182617 5.39489746 C36.39508548 5.46556097 32.66824386 5.53038979 28.94140625 5.59570312 C21.62749255 5.72474398 14.31371924 5.86032911 7 6 C6.67 7.32 6.34 8.64 6 10 C4.68 10 3.36 10 2 10 C2 55.87 2 101.74 2 149 C1.34 149 0.68 149 0 149 C0 99.83 0 50.66 0 0 Z " fill="#A2862E" transform="translate(0,13)"/>
<path d="M0 0 C27.06 0 54.12 0 82 0 C82 0.99 82 1.98 82 3 C55.6 3 29.2 3 2 3 C2 38.64 2 74.28 2 111 C-9 111 -9 111 -12.49609375 108.0625 C-13.51207558 106.73476988 -14.49133712 105.37835487 -15.4375 104 C-16.24018311 102.92480103 -16.24018311 102.92480103 -17.05908203 101.82788086 C-18.17561353 100.32579043 -19.27708174 98.81239438 -20.36376953 97.28857422 C-21.95641133 95.0609669 -23.59024484 92.87231708 -25.24609375 90.69140625 C-27.28571862 88.00419655 -29.31161069 85.30806274 -31.3203125 82.59765625 C-34.47766696 78.34427747 -37.71919637 74.15876517 -41 70 C-40.01 70 -39.02 70 -38 70 C-36.25942757 71.91617 -34.72823866 73.80570509 -33.1875 75.875 C-32.21105349 77.15243242 -31.23448473 78.4297714 -30.2578125 79.70703125 C-29.47519043 80.74077881 -29.47519043 80.74077881 -28.67675781 81.79541016 C-25.6731781 85.74449647 -22.61284121 89.64950482 -19.5625 93.5625 C-18.39706841 95.06375007 -17.23170052 96.56504959 -16.06640625 98.06640625 C-15.5264502 98.74719238 -14.98649414 99.42797852 -14.43017578 100.12939453 C-13 102 -13 102 -11.15234375 104.96484375 C-8.39405189 107.98239662 -8.39405189 107.98239662 0 108 C0 72.36 0 36.72 0 0 Z " fill="#624A0C" transform="translate(89,19)"/>
<path d="M0 0 C0.33 0 0.66 0 1 0 C1 30.03 1 60.06 1 91 C-54.44 91 -109.88 91 -167 91 C-167 90.34 -167 89.68 -167 89 C-166.01 89 -165.02 89 -164 89 C-163.505 88.01 -163.505 88.01 -163 87 C-163 87.66 -163 88.32 -163 89 C-109.54 89 -56.08 89 -1 89 C-0.67 59.63 -0.34 30.26 0 0 Z " fill="#7A5C14" transform="translate(173,88)"/>
<path d="M0 0 C32.67 0 65.34 0 99 0 C98.67 3.3 98.34 6.6 98 10 C97.67 10 97.34 10 97 10 C97 7.36 97 4.72 97 2 C65.65 2 34.3 2 2 2 C2 34.34 2 66.68 2 100 C-0.475 100.495 -0.475 100.495 -3 101 C-2 98 -2 98 -1 97 C-0.87464877 93.98720624 -0.81389309 90.99633466 -0.79467773 87.98217773 C-0.78464501 87.02057519 -0.77461229 86.05897264 -0.76427555 85.06823063 C-0.73276784 81.94004325 -0.70806903 78.81184326 -0.68359375 75.68359375 C-0.66520162 73.75849991 -0.64636557 71.83341025 -0.6270752 69.9083252 C-0.55849239 62.75143309 -0.49852631 55.59446052 -0.4375 48.4375 C-0.293125 32.453125 -0.14875 16.46875 0 0 Z " fill="#9E812B" transform="translate(81,13)"/>
<path d="M0 0 C0.33 0 0.66 0 1 0 C1 19.14 1 38.28 1 58 C13.87 58 26.74 58 40 58 C40 56.02 40 54.04 40 52 C40.66 51.67 41.32 51.34 42 51 C42 54.3 42 57.6 42 61 C27.81 61 13.62 61 -1 61 C-1.02314153 54.72350368 -1.04299821 48.44715953 -1.05493164 42.1706543 C-1.05991436 40.04206842 -1.06670295 37.91348589 -1.07543945 35.78491211 C-1.12329991 23.81135222 -1.05925135 11.93359495 0 0 Z " fill="#A98C29" transform="translate(104,69)"/>
<path d="M0 0 C22.11 0 44.22 0 67 0 C67 0.99 67 1.98 67 3 C36.31 3.495 36.31 3.495 5 4 C4.67 5.32 4.34 6.64 4 8 C2.68 8 1.36 8 0 8 C0 5.36 0 2.72 0 0 Z " fill="#B49945" transform="translate(2,15)"/>
<path d="M0 0 C0.33 0 0.66 0 1 0 C1 19.14 1 38.28 1 58 C2.98 58 4.96 58 7 58 C7 44.14 7 30.28 7 16 C7.99 16 8.98 16 10 16 C9.67 30.85 9.34 45.7 9 61 C5.7 61 2.4 61 -1 61 C-1.10343989 40.64143789 -1.20358646 20.33201417 0 0 Z " fill="#7F6519" transform="translate(38,69)"/>
<path d="M0 0 C4.68421663 4.3547185 8.34434639 9.29472759 12.125 14.4375 C17.67165094 21.95488001 17.67165094 21.95488001 23.4609375 29.28515625 C23.97769043 29.91945557 24.49444336 30.55375488 25.02685547 31.20727539 C25.98670357 32.3753504 26.95666761 33.53520824 27.93798828 34.68530273 C31.04750953 38.48418221 31.04750953 38.48418221 30.78125 41.375 C30.5234375 41.91125 30.265625 42.4475 30 43 C26.8905843 40.22373598 25.0434559 37.37438325 23.06640625 33.72265625 C21.9286116 31.73774549 21.9286116 31.73774549 19.5 29.5 C17.00537884 27.00537884 15.62355645 24.77212087 13.97265625 21.7109375 C12.18057379 18.55859968 10.27756496 15.63878248 7 14 C6.67 13.01 6.34 12.02 6 11 C5.34 10.67 4.68 10.34 4 10 C3.33333333 8.66666667 2.66666667 7.33333333 2 6 C1.34 5.67 0.68 5.34 0 5 C0 3.35 0 1.7 0 0 Z " fill="#EEE1AF" transform="translate(47,67)"/>
<path d="M0 0 C1.18682625 0.00539291 1.18682625 0.00539291 2.39762878 0.01089478 C3.22682831 0.01074875 4.05602783 0.01060272 4.91035461 0.01045227 C7.664521 0.01115166 10.41862063 0.01894523 13.17277527 0.02676392 C15.07706668 0.028628 16.98135857 0.03005195 18.88565063 0.03105164 C23.90804865 0.03487754 28.93041794 0.04470843 33.95280457 0.05575562 C39.07365022 0.06596819 44.1945005 0.07054892 49.31535339 0.07559204 C59.37070459 0.08633064 69.42603442 0.10340792 79.48136902 0.12442017 C79.97636902 1.60942017 79.97636902 1.60942017 80.48136902 3.12442017 C79.49136902 2.79442017 78.50136902 2.46442017 77.48136902 2.12442017 C74.8509121 2.00461288 72.24491009 1.939132 69.6134491 1.9190979 C68.81321823 1.9091983 68.01298737 1.89929871 67.18850708 1.88909912 C64.54266827 1.85750413 61.8968115 1.83273459 59.25090027 1.80801392 C57.41672295 1.78744266 55.58255035 1.76644614 53.74838257 1.74504089 C48.92005741 1.68983793 44.0916896 1.6404208 39.26329041 1.5921936 C34.33659568 1.54196564 29.40996293 1.48628633 24.48332214 1.43106079 C14.81605737 1.32350092 5.1487388 1.2220511 -4.51863098 1.12442017 C-4.51863098 5.74442017 -4.51863098 10.36442017 -4.51863098 15.12442017 C-4.84863098 15.12442017 -5.17863098 15.12442017 -5.51863098 15.12442017 C-5.71253827 12.81244861 -5.89859465 10.49981726 -6.08113098 8.18692017 C-6.23775208 6.25526001 -6.23775208 6.25526001 -6.39753723 4.28457642 C-6.43749817 3.24172485 -6.47745911 2.19887329 -6.51863098 1.12442017 C-4.74141408 -0.65279674 -2.36615898 0.00453918 0 0 Z " fill="#C8B46A" transform="translate(93.51863098144531,17.875579833984375)"/>
<path d="M0 0 C0.33 0 0.66 0 1 0 C1 3.3 1 6.6 1 10 C-13.19 10 -27.38 10 -42 10 C-42 9.34 -42 8.68 -42 8 C-28.8 7.67 -15.6 7.34 -2 7 C-1.34 4.69 -0.68 2.38 0 0 Z " fill="#5E480F" transform="translate(145,120)"/>
<path d="M0 0 C3.3 0 6.6 0 10 0 C9.67 17.16 9.34 34.32 9 52 C8.67 52 8.34 52 8 52 C8 35.5 8 19 8 2 C6.02 2.33 4.04 2.66 2 3 C1.67 7.62 1.34 12.24 1 17 C0.67 17 0.34 17 0 17 C0 11.39 0 5.78 0 0 Z " fill="#D7BC58" transform="translate(103,67)"/>
<path d="M0 0 C4.05216282 1.54018858 5.83355678 4.06514841 8.375 7.5 C9.24903577 8.66869049 10.12409754 9.83661414 11 11.00390625 C11.474375 11.6395752 11.94875 12.27524414 12.4375 12.93017578 C15.94934833 17.58227737 19.57540754 22.14790742 23.17724609 26.73046875 C26.29656453 30.72319634 29.25806855 34.73852526 32 39 C27.4692023 37.42173635 25.19667986 33.84631159 22.375 30.1875 C21.58875244 29.18468994 21.58875244 29.18468994 20.78662109 28.16162109 C19.1840009 26.11315555 17.59198798 24.0567329 16 22 C15.06833773 20.81070459 14.13608102 19.62187453 13.203125 18.43359375 C8.53379054 12.45795738 4.0698034 6.40249559 0 0 Z " fill="#95791B" transform="translate(48,88)"/>
<path d="M0 0 C0.33 0.66 0.66 1.32 1 2 C11.23 2 21.46 2 32 2 C31.67 4.31 31.34 6.62 31 9 C30.67 9 30.34 9 30 9 C30 7.35 30 5.7 30 4 C19.77 4 9.54 4 -1 4 C-0.67 2.68 -0.34 1.36 0 0 Z " fill="#B29631" transform="translate(113,118)"/>
<path d="M0 0 C3.42451164 1.14150388 4.08796518 2.04451602 6.1875 4.875 C6.71730469 5.57367188 7.24710937 6.27234375 7.79296875 6.9921875 C9 9 9 9 9 12 C9.969375 12.2475 10.93875 12.495 11.9375 12.75 C12.948125 13.1625 13.95875 13.575 15 14 C15.875 16.125 15.875 16.125 16 18 C15.01 18.33 14.02 18.66 13 19 C10.82554873 16.21431795 8.66179961 13.42050802 6.5 10.625 C5.87996094 9.8309375 5.25992188 9.036875 4.62109375 8.21875 C4.03457031 7.45820312 3.44804688 6.69765625 2.84375 5.9140625 C2.29912109 5.2123291 1.75449219 4.5105957 1.19335938 3.78759766 C0 2 0 2 0 0 Z " fill="#C9AC43" transform="translate(64,94)"/>
<path d="M0 0 C0.33 0 0.66 0 1 0 C1 12.54 1 25.08 1 38 C-1.475 38.495 -1.475 38.495 -4 39 C-3.67 38.01 -3.34 37.02 -3 36 C-2.01 35.505 -2.01 35.505 -1 35 C-0.67 23.45 -0.34 11.9 0 0 Z " fill="#967A22" transform="translate(82,75)"/>
<path d="M0 0 C3.1974038 3.00362175 6.08519986 6.1744862 8.875 9.5625 C9.79925781 10.67818359 9.79925781 10.67818359 10.7421875 11.81640625 C12 14 12 14 11.6953125 16.27734375 C11.46585938 16.84582031 11.23640625 17.41429688 11 18 C7.92334782 15.25298913 6.04172153 12.43129311 4.08203125 8.81640625 C2.36216876 5.92927247 0.21412745 3.52164515 -2 1 C-1.34 0.67 -0.68 0.34 0 0 Z " fill="#E5D59C" transform="translate(66,92)"/>
<path d="M0 0 C0.33 0 0.66 0 1 0 C1.33 5.28 1.66 10.56 2 16 C1.34 16 0.68 16 0 16 C0 15.01 0 14.02 0 13 C-0.99 13.33 -1.98 13.66 -3 14 C-3 12.02 -3 10.04 -3 8 C-2.01 8 -1.02 8 0 8 C0 5.36 0 2.72 0 0 Z " fill="#D2BC6F" transform="translate(177,15)"/>
<path d="M0 0 C4.08596252 1.52763464 5.79826179 4.11084191 8.25 7.625 C8.95640625 8.62789062 9.6628125 9.63078125 10.390625 10.6640625 C11.18726563 11.82035156 11.18726563 11.82035156 12 13 C11.01 13 10.02 13 9 13 C7.29928977 11.05255461 5.80452995 9.15895676 4.3125 7.0625 C3.89677734 6.49853516 3.48105469 5.93457031 3.05273438 5.35351562 C0 1.16791102 0 1.16791102 0 0 Z " fill="#997D23" transform="translate(48,88)"/>
<path d="M0 0 C6.24675325 6.07792208 6.24675325 6.07792208 8 9 C7.67 9.99 7.34 10.98 7 12 C3.91206745 9.9413783 3.52161393 9.1446688 2 6 C1.34 5.67 0.68 5.34 0 5 C0 3.35 0 1.7 0 0 Z " fill="#F4E8BA" transform="translate(47,67)"/>
<path d="M0 0 C3.35882075 1.41231461 5.13329047 3.03368978 7.3125 5.9375 C8.11107422 6.97197266 8.11107422 6.97197266 8.92578125 8.02734375 C9.28027344 8.67832031 9.63476562 9.32929687 10 10 C9.67 10.99 9.34 11.98 9 13 C7.49710267 11.02297434 5.99758658 9.0435417 4.5 7.0625 C4.07074219 6.49853516 3.64148437 5.93457031 3.19921875 5.35351562 C0 1.11328125 0 1.11328125 0 0 Z " fill="#917314" transform="translate(59,102)"/>
<path d="M0 0 C3.53233755 1.17744585 3.86308075 1.95605641 5.6875 5.0625 C6.12449219 5.79597656 6.56148438 6.52945313 7.01171875 7.28515625 C7.33785156 7.85105469 7.66398437 8.41695312 8 9 C7.01 9 6.02 9 5 9 C3.61328125 7.5390625 3.61328125 7.5390625 2.3125 5.625 C1.65701172 4.68527344 1.65701172 4.68527344 0.98828125 3.7265625 C0 2 0 2 0 0 Z " fill="#D3B750" transform="translate(64,94)"/>
<path d="M0 0 C1.32 0 2.64 0 4 0 C4 1.65 4 3.3 4 5 C2.68 5.33 1.36 5.66 0 6 C0 4.02 0 2.04 0 0 Z " fill="#D1BA68" transform="translate(2,23)"/>
<path d="M0 0 C1.32 0 2.64 0 4 0 C4 1.65 4 3.3 4 5 C2.68 5 1.36 5 0 5 C0 3.35 0 1.7 0 0 Z " fill="#D0BA68" transform="translate(83,23)"/>
</svg>
